<svg width="115" height="90" viewBox="0 0 115 90" fill="none" xmlns="http://www.w3.org/2000/svg">
<path d="M23.03 32.883C23.03 26.9337 24.1293 21.9867 26.328 18.042C28.5267 14.162 31.5983 11.2197 35.543 9.215C39.4877 7.21033 44.079 6.111 49.317 5.917C51.9683 5.85233 54.8137 5.82 57.853 5.82C60.8923 5.82 63.8023 5.85233 66.583 5.917C71.821 6.111 76.4123 7.21033 80.357 9.215C84.3017 11.2197 87.3733 14.162 89.572 18.042C91.7707 21.9867 92.87 26.9337 92.87 32.883C92.87 37.345 92.2557 41.2573 91.027 44.62C89.7983 47.9827 88.1493 50.7633 86.08 52.962C84.0107 55.2253 81.6827 56.939 79.096 58.103C76.574 59.267 73.955 59.9137 71.239 60.043C70.657 60.1077 70.172 59.9137 69.784 59.461C69.396 59.073 69.202 58.588 69.202 58.006V52.671C69.202 52.089 69.3637 51.5717 69.687 51.119C70.0103 50.731 70.5923 50.44 71.433 50.246C76.477 49.1467 79.9367 47.0773 81.812 44.038C83.6873 41.0633 84.625 37.3127 84.625 32.786C84.625 27.6127 83.1377 23.5063 80.163 20.467C77.253 17.4277 72.5647 15.7787 66.098 15.52C60.7953 15.326 55.3633 15.326 49.802 15.52C43.3353 15.7787 38.6147 17.4277 35.64 20.467C32.73 23.5063 31.275 27.6127 31.275 32.786C31.275 37.3127 32.2127 41.0633 34.088 44.038C35.9633 47.0773 39.423 49.1467 44.467 50.246C45.3077 50.44 45.8897 50.731 46.213 51.119C46.5363 51.5717 46.698 52.089 46.698 52.671V58.006C46.698 58.588 46.504 59.073 46.116 59.461C45.728 59.9137 45.243 60.1077 44.661 60.043C41.945 59.9137 39.2937 59.267 36.707 58.103C34.185 56.939 31.8893 55.2253 29.82 52.962C27.7507 50.7633 26.1017 47.9827 24.873 44.62C23.6443 41.2573 23.03 37.345 23.03 32.883Z" fill="url(#paint0_linear_9_28)"/>
<path d="M91.5676 79.272C91.5617 79.976 91.3651 80.5183 90.9779 80.8991C90.5266 81.2793 89.9811 81.4667 89.3411 81.4613L26.6553 80.9336C25.9513 80.9277 25.409 80.7311 25.0282 80.3439C24.5834 79.9561 24.364 79.4103 24.37 78.7063L24.4112 73.8105C24.4171 73.1065 24.6457 72.5644 25.0969 72.1842C25.4846 71.7394 26.0305 71.52 26.7345 71.5259L53.2296 71.749L53.5076 38.7262L27.0125 38.5031C26.3085 38.4972 25.7662 38.3006 25.3854 37.9134C24.9412 37.4616 24.7218 36.9158 24.7272 36.2758L24.7684 31.38C24.7743 30.676 25.0029 30.1339 25.4541 29.7537C25.8419 29.3089 26.3877 29.0895 27.0917 29.0954L89.7775 29.6232C90.4175 29.6285 90.9596 29.8571 91.4038 30.3089C91.7845 30.6961 91.9719 31.2417 91.966 31.9457L91.9248 36.8415C91.9194 37.4815 91.7228 38.0238 91.3351 38.4686C90.8839 38.8488 90.3383 39.0362 89.6983 39.0308L62.1473 38.7989L61.8692 71.8217L89.4203 72.0537C90.0603 72.059 90.6023 72.2876 91.0466 72.7394C91.4273 73.1266 91.6147 73.6722 91.6088 74.3762L91.5676 79.272Z" fill="url(#paint1_linear_9_28)"/>
<defs>
<linearGradient id="paint0_linear_9_28" x1="94.3201" y1="18" x2="-10.0592" y2="31.2254" gradientUnits="userSpaceOnUse">
<stop stop-color="#33FFCE"/>
<stop offset="1" stop-color="#33A9FF"/>
</linearGradient>
<linearGradient id="paint1_linear_9_28" x1="22.5" y1="80.5" x2="92" y2="30.5" gradientUnits="userSpaceOnUse">
<stop stop-color="#33A9FF"/>
<stop offset="1" stop-color="#33FFCE"/>
</linearGradient>
</defs>
</svg>
