<svg width="142" height="123" viewBox="0 0 142 123" fill="none" xmlns="http://www.w3.org/2000/svg">
<path d="M37.03 48.883C37.03 42.9337 38.1293 37.9867 40.328 34.042C42.5267 30.162 45.5983 27.2197 49.543 25.215C53.4877 23.2103 58.079 22.111 63.317 21.917C65.9683 21.8523 68.8137 21.82 71.853 21.82C74.8923 21.82 77.8023 21.8523 80.583 21.917C85.821 22.111 90.4123 23.2103 94.357 25.215C98.3017 27.2197 101.373 30.162 103.572 34.042C105.771 37.9867 106.87 42.9337 106.87 48.883C106.87 53.345 106.256 57.2573 105.027 60.62C103.798 63.9827 102.149 66.7633 100.08 68.962C98.0107 71.2253 95.6827 72.939 93.096 74.103C90.574 75.267 87.955 75.9137 85.239 76.043C84.657 76.1077 84.172 75.9137 83.784 75.461C83.396 75.073 83.202 74.588 83.202 74.006V68.671C83.202 68.089 83.3637 67.5717 83.687 67.119C84.0103 66.731 84.5923 66.44 85.433 66.246C90.477 65.1467 93.9367 63.0773 95.812 60.038C97.6873 57.0633 98.625 53.3127 98.625 48.786C98.625 43.6127 97.1377 39.5063 94.163 36.467C91.253 33.4277 86.5647 31.7787 80.098 31.52C74.7953 31.326 69.3633 31.326 63.802 31.52C57.3353 31.7787 52.6147 33.4277 49.64 36.467C46.73 39.5063 45.275 43.6127 45.275 48.786C45.275 53.3127 46.2127 57.0633 48.088 60.038C49.9633 63.0773 53.423 65.1467 58.467 66.246C59.3077 66.44 59.8897 66.731 60.213 67.119C60.5363 67.5717 60.698 68.089 60.698 68.671V74.006C60.698 74.588 60.504 75.073 60.116 75.461C59.728 75.9137 59.243 76.1077 58.661 76.043C55.945 75.9137 53.2937 75.267 50.707 74.103C48.185 72.939 45.8893 71.2253 43.82 68.962C41.7507 66.7633 40.1017 63.9827 38.873 60.62C37.6443 57.2573 37.03 53.345 37.03 48.883Z" fill="url(#paint0_linear_4_14)"/>
<path d="M105.568 95.272C105.562 95.976 105.365 96.5183 104.978 96.8991C104.527 97.2793 103.981 97.4667 103.341 97.4613L40.6553 96.9336C39.9513 96.9277 39.409 96.7311 39.0282 96.3439C38.5834 95.9561 38.364 95.4103 38.37 94.7063L38.4112 89.8105C38.4171 89.1065 38.6457 88.5644 39.0969 88.1842C39.4846 87.7394 40.0305 87.52 40.7345 87.5259L67.2296 87.749L67.5076 54.7262L41.0125 54.5031C40.3085 54.4972 39.7662 54.3006 39.3854 53.9134C38.9412 53.4616 38.7218 52.9158 38.7272 52.2758L38.7684 47.38C38.7743 46.676 39.0029 46.1339 39.4541 45.7537C39.8419 45.3089 40.3877 45.0895 41.0917 45.0954L103.777 45.6232C104.417 45.6285 104.96 45.8571 105.404 46.3089C105.785 46.6961 105.972 47.2417 105.966 47.9457L105.925 52.8415C105.919 53.4815 105.723 54.0238 105.335 54.4686C104.884 54.8488 104.338 55.0362 103.698 55.0308L76.1473 54.7989L75.8692 87.8217L103.42 88.0537C104.06 88.059 104.602 88.2876 105.047 88.7394C105.427 89.1266 105.615 89.6722 105.609 90.3762L105.568 95.272Z" fill="url(#paint1_linear_4_14)"/>
<path d="M105.474 5L136 61.2322L105.474 118H39.6842L6 61.2322L39.6842 5L105.474 5Z" stroke="url(#paint2_linear_4_14)" stroke-width="9"/>
<defs>
<linearGradient id="paint0_linear_4_14" x1="108.32" y1="34" x2="3.94083" y2="47.2254" gradientUnits="userSpaceOnUse">
<stop stop-color="#33FFCE"/>
<stop offset="1" stop-color="#33A9FF"/>
</linearGradient>
<linearGradient id="paint1_linear_4_14" x1="36.5" y1="96.5" x2="106" y2="46.5" gradientUnits="userSpaceOnUse">
<stop stop-color="#33A9FF"/>
<stop offset="1" stop-color="#33FFCE"/>
</linearGradient>
<linearGradient id="paint2_linear_4_14" x1="136" y1="61.5" x2="6" y2="61.5" gradientUnits="userSpaceOnUse">
<stop stop-color="#9B82FF"/>
<stop offset="1" stop-color="#4213FF"/>
</linearGradient>
</defs>
</svg>
