<svg width="150" height="134" viewBox="0 0 150 134" fill="none" xmlns="http://www.w3.org/2000/svg">
<path d="M41.03 54.883C41.03 48.9337 42.1293 43.9867 44.328 40.042C46.5267 36.162 49.5983 33.2197 53.543 31.215C57.4877 29.2103 62.079 28.111 67.317 27.917C69.9683 27.8523 72.8137 27.82 75.853 27.82C78.8923 27.82 81.8023 27.8523 84.583 27.917C89.821 28.111 94.4123 29.2103 98.357 31.215C102.302 33.2197 105.373 36.162 107.572 40.042C109.771 43.9867 110.87 48.9337 110.87 54.883C110.87 59.345 110.256 63.2573 109.027 66.62C107.798 69.9827 106.149 72.7633 104.08 74.962C102.011 77.2253 99.6827 78.939 97.096 80.103C94.574 81.267 91.955 81.9137 89.239 82.043C88.657 82.1077 88.172 81.9137 87.784 81.461C87.396 81.073 87.202 80.588 87.202 80.006V74.671C87.202 74.089 87.3637 73.5717 87.687 73.119C88.0103 72.731 88.5923 72.44 89.433 72.246C94.477 71.1467 97.9367 69.0773 99.812 66.038C101.687 63.0633 102.625 59.3127 102.625 54.786C102.625 49.6127 101.138 45.5063 98.163 42.467C95.253 39.4277 90.5647 37.7787 84.098 37.52C78.7953 37.326 73.3633 37.326 67.802 37.52C61.3353 37.7787 56.6147 39.4277 53.64 42.467C50.73 45.5063 49.275 49.6127 49.275 54.786C49.275 59.3127 50.2127 63.0633 52.088 66.038C53.9633 69.0773 57.423 71.1467 62.467 72.246C63.3077 72.44 63.8897 72.731 64.213 73.119C64.5363 73.5717 64.698 74.089 64.698 74.671V80.006C64.698 80.588 64.504 81.073 64.116 81.461C63.728 81.9137 63.243 82.1077 62.661 82.043C59.945 81.9137 57.2937 81.267 54.707 80.103C52.185 78.939 49.8893 77.2253 47.82 74.962C45.7507 72.7633 44.1017 69.9827 42.873 66.62C41.6443 63.2573 41.03 59.345 41.03 54.883Z" fill="url(#paint0_linear_4_14)"/>
<path d="M109.568 101.272C109.562 101.976 109.365 102.518 108.978 102.899C108.527 103.279 107.981 103.467 107.341 103.461L44.6553 102.934C43.9513 102.928 43.409 102.731 43.0282 102.344C42.5834 101.956 42.364 101.41 42.37 100.706L42.4112 95.8105C42.4171 95.1065 42.6457 94.5644 43.0969 94.1842C43.4846 93.7394 44.0305 93.52 44.7345 93.5259L71.2296 93.749L71.5076 60.7262L45.0125 60.5031C44.3085 60.4972 43.7662 60.3006 43.3854 59.9134C42.9412 59.4616 42.7218 58.9158 42.7272 58.2758L42.7684 53.38C42.7743 52.676 43.0029 52.1339 43.4541 51.7537C43.8419 51.3089 44.3877 51.0895 45.0917 51.0954L107.777 51.6232C108.417 51.6285 108.96 51.8571 109.404 52.3089C109.785 52.6961 109.972 53.2417 109.966 53.9457L109.925 58.8415C109.919 59.4815 109.723 60.0238 109.335 60.4686C108.884 60.8488 108.338 61.0362 107.698 61.0308L80.1473 60.7989L79.8692 93.8217L107.42 94.0537C108.06 94.059 108.602 94.2876 109.047 94.7394C109.427 95.1266 109.615 95.6722 109.609 96.3762L109.568 101.272Z" fill="url(#paint1_linear_4_14)"/>
<path d="M111.595 5L144 66.7062L111.595 129H41.7571L6 66.7062L41.7571 5L111.595 5Z" stroke="url(#paint2_linear_4_14)" stroke-width="9"/>
<defs>
<linearGradient id="paint0_linear_4_14" x1="112.32" y1="40" x2="7.94083" y2="53.2254" gradientUnits="userSpaceOnUse">
<stop stop-color="#33FFCE"/>
<stop offset="1" stop-color="#33A9FF"/>
</linearGradient>
<linearGradient id="paint1_linear_4_14" x1="40.5" y1="102.5" x2="110" y2="52.5" gradientUnits="userSpaceOnUse">
<stop stop-color="#33A9FF"/>
<stop offset="1" stop-color="#33FFCE"/>
</linearGradient>
<linearGradient id="paint2_linear_4_14" x1="144" y1="67" x2="6" y2="67" gradientUnits="userSpaceOnUse">
<stop stop-color="#9B82FF"/>
<stop offset="1" stop-color="#4213FF"/>
</linearGradient>
</defs>
</svg>
